<?xml version="1.0" encoding="utf-8"?>
<!-- Generator: Adobe Illustrator 17.0.0, SVG Export Plug-In . SVG Version: 6.00 Build 0)  -->
<!DOCTYPE svg PUBLIC "-//W3C//DTD SVG 1.1//EN" "http://www.w3.org/Graphics/SVG/1.1/DTD/svg11.dtd">
<svg version="1.1" id="Layer_1" xmlns="http://www.w3.org/2000/svg" xmlns:xlink="http://www.w3.org/1999/xlink" x="0px" y="0px"
	 width="205px" height="61px" viewBox="0 0 205 61" enable-background="new 0 0 205 61" xml:space="preserve">
<path fill="#FFFFFF" d="M118.059,27.242c0.53,0,0.954-0.318,0.954-0.742c0-1.961,0-2.888,0-3.233c0,0.053,0,0.079,0,0.132
	c0-0.106,0-0.185,0-0.318c0-0.53,0-1.245,0-2.252c0-0.397-0.45-0.742-0.98-0.742l0,0c-3.418,0-6.015,0-8.002,0c0,0-1.404,0-5.564,0
	c-1.987,0-4.61,0-8.002,0c-0.53,0-0.98,0.318-0.98,0.742c0,1.007,0,1.722,0,2.226l0,0l0,0c0,0.132,0,0.238,0,0.318
	c0-0.212,0-0.291,0-0.318c0,0.026,0,0.159,0,0.318l0,0c0,0.053,0,0.106,0,0.159c0,0.132,0,0.238,0,0.318c0-0.053,0-0.106,0-0.185
	c0,0.503,0,1.378,0,2.756c0,0.397,0.424,0.742,0.98,0.742l0,0c0.927,0,1.828,0,2.756,0c0.53,0,0.98-0.318,0.98-0.742
	c0-0.689,0-1.378,0-2.067c0-0.397,0.45-0.742,0.98-0.742c0.927,0,1.828,0,2.756,0l0,0c0.53,0,0.98,0.318,0.98,0.742
	c0,5.405,0,10.81,0,16.216c0,0.397,0.45,0.742,0.98,0.742c0.927,0,1.855,0,2.756,0l0,0c0.53,0,0.98-0.318,0.98-0.715
	c0-5.405,0-10.81,0-16.216c0-0.397,0.424-0.742,0.98-0.742l0,0c0.927,0,1.828,0,2.756,0c0.53,0,0.98,0.344,0.98,0.742
	c0,0.689,0,1.378,0,2.067c0,0.397,0.45,0.742,0.98,0.742C116.204,27.242,117.132,27.242,118.059,27.242L118.059,27.242z"/>
<path fill="#FFFFFF" d="M38.199,23.612c-1.033-0.901-2.067-1.828-3.1-2.756c-0.503-0.45-1.219-0.715-1.934-0.715
	c-3.948,0-7.896,0-11.844,0l0,0c-0.715,0-1.431,0.291-1.934,0.795c-1.033,1.033-2.067,2.067-3.1,3.127
	c-0.503,0.53-0.795,1.219-0.795,1.934c0,5.511,0,11.022,0,16.56c0,0.715,0.291,1.378,0.795,1.828c1.033,0.901,2.067,1.775,3.1,2.623
	c0.424,0.344,0.954,0.53,1.51,0.53c0.132,0,0.265,0,0.397-0.027c3.921-0.583,7.869-1.113,11.817-1.616
	c0.715-0.079,1.404-0.45,1.934-0.954c1.033-1.06,2.067-2.093,3.1-3.127c0.503-0.503,0.795-1.139,0.795-1.802
	c0-0.768,0-1.537,0-2.305c0-0.45-0.397-0.795-0.874-0.795c-0.026,0-0.053,0-0.079,0c-0.927,0.079-1.828,0.132-2.756,0.212
	c-0.53,0.053-0.98,0.477-0.98,0.954c0,0.185,0,0.397,0,0.583c0,0.662-0.291,1.298-0.795,1.828c-0.106,0.106-0.238,0.238-0.344,0.344
	c-0.503,0.53-1.219,0.874-1.934,0.954c-2.65,0.291-5.299,0.583-7.922,0.901c-0.106,0.026-0.238,0.026-0.344,0.026
	c-0.609,0-1.166-0.185-1.59-0.556c-0.106-0.106-0.238-0.212-0.344-0.291c-0.503-0.424-0.795-1.086-0.795-1.775
	c0-4.107,0-8.214,0-12.321c0-0.715,0.291-1.404,0.795-1.908c0.132-0.132,0.238-0.238,0.371-0.371
	c0.503-0.503,1.219-0.795,1.934-0.821c2.65-0.053,5.299-0.132,7.949-0.185c0.026,0,0.053,0,0.053,0c0.715,0,1.378,0.238,1.881,0.689
	c0.106,0.106,0.238,0.212,0.344,0.318c0.503,0.45,0.795,1.06,0.795,1.722c0,0.185,0,0.397,0,0.583c0,0.477,0.397,0.848,0.927,0.848
	c0.026,0,0.026,0,0.053,0c0.927-0.026,1.828-0.079,2.756-0.106c0.53-0.026,0.98-0.424,0.98-0.901c0-0.768,0-1.537,0-2.279
	C38.994,24.672,38.703,24.062,38.199,23.612z"/>
<path fill="#FFFFFF" d="M71.85,41.523c0-0.715,0-1.431,0-2.173c0-0.397-0.397-0.715-0.901-0.715c-0.026,0-0.053,0-0.053,0
	c-0.53,0.027-1.086,0.053-1.616,0.079c-0.053,0-0.132,0-0.185,0c-0.662,0-1.272-0.185-1.749-0.53
	c-1.086-0.821-2.199-1.643-3.286-2.464c-0.106-0.079-0.132-0.185-0.079-0.318c0.053-0.106,0.185-0.185,0.318-0.185
	c0.583-0.027,1.166-0.053,1.749-0.079c0.715-0.026,1.431-0.291,1.934-0.715c1.033-0.874,2.093-1.722,3.127-2.57
	c0.503-0.424,0.795-0.98,0.795-1.537c0-1.855,0.026-3.736,0.026-5.591c0-0.556-0.291-1.113-0.795-1.51
	c-1.033-0.821-2.067-1.643-3.1-2.464c-0.503-0.397-1.219-0.636-1.934-0.636c-7.127,0-14.255,0-21.409,0l0,0
	c-0.53,0-0.98,0.371-0.98,0.848c0,0.795,0,1.59,0,2.385c0,0.45,0.424,0.821,0.954,0.821h0.026c0.927-0.026,1.828-0.026,2.756-0.053
	c0,0,0,0,0.027,0c0.53,0,0.954,0.371,0.954,0.821C48.4,28.461,48.4,30.474,48.4,31.561c0,0.026,0,0.053,0,0.106
	c0,0.079,0,0.159,0,0.238s0,0.185,0,0.318c0,0.185,0,0.344,0,0.424l0,0c0,0.053,0,0.079,0,0.079l0,0c0,1.113-0.026,3.1-0.026,6.571
	c0,0.45-0.45,0.874-0.98,0.901c-0.927,0.079-1.828,0.159-2.756,0.238c-0.53,0.053-0.98,0.477-0.98,0.927c0,0.795,0,1.59,0,2.385
	c0,0.424,0.371,0.742,0.848,0.742c0.026,0,0.079,0,0.132,0c4.266-0.45,7.843-0.795,12.162-1.166c0.53-0.053,0.98-0.45,0.98-0.874
	c0-0.742,0-1.51,0-2.252c0-0.424-0.397-0.742-0.901-0.742c-0.026,0-0.053,0-0.079,0c-0.927,0.053-1.828,0.132-2.756,0.212
	c-0.026,0-0.053,0-0.079,0c-0.503,0-0.874-0.318-0.874-0.742c0.026-5.087,0-0.742,0.053-14.069c0-0.45,0.45-0.821,0.98-0.821
	c2.438-0.026,3.709-0.053,4.319-0.053c-0.53,0-0.742,0-0.742,0c-0.053,0,1.166-0.026,1.219-0.026c0.027,0-0.106,0-0.45,0
	c0.848,0,2.57-0.026,5.75-0.079c0.026,0,0.026,0,0.053,0c0.715,0,1.404,0.238,1.908,0.636c0.132,0.106,0.238,0.185,0.371,0.291
	c0.503,0.397,0.768,0.954,0.768,1.51c0,0.848,0,1.722,0,2.57c0,0.583-0.291,1.139-0.795,1.563c-0.106,0.106-0.238,0.185-0.344,0.291
	c-0.503,0.424-1.219,0.689-1.934,0.715c-1.775,0.053-3.577,0.132-5.352,0.212c-0.53,0.026-0.98,0.397-0.98,0.848
	c0,0.98,0,1.961-0.026,2.915c0,0.583,0.291,1.139,0.795,1.537c1.033,0.795,2.067,1.563,3.1,2.332
	c0.503,0.371,0.795,0.927,0.795,1.51c0,0.45,0,0.874,0,1.325c0,0.397,0.397,0.715,0.874,0.715c0.026,0,0.053,0,0.079,0
	c2.491-0.185,4.981-0.344,7.472-0.503C71.426,42.318,71.85,41.947,71.85,41.523z"/>
<path fill="#FFFFFF" d="M77.493,41.974c0.027,0,0.053,0,0.053,0c4.292-0.212,7.869-0.344,12.188-0.45
	c0.53-0.027,0.98-0.344,0.98-0.768c0-0.689,0-1.378,0-2.093c0-0.397-0.424-0.715-0.954-0.715h-0.026
	c-0.927,0.026-1.855,0.053-2.756,0.079h-0.026c-0.53,0-0.954-0.318-0.954-0.715c0-4.292,0.026-8.558,0.026-12.851
	c0-0.397,0.45-0.742,0.98-0.742c0.927,0,1.828,0,2.756-0.026c0.53,0,0.98-0.344,0.98-0.742c0-0.689,0-1.378,0-2.093
	c0-0.397-0.424-0.742-0.98-0.742c-4.266,0-7.869,0-12.162,0c-0.53,0-0.98,0.344-0.98,0.768c0,0.715,0,1.431,0,2.146
	c0,0.424,0.424,0.742,0.954,0.742l0,0c0.927,0,1.828-0.026,2.756-0.026l0,0c0.53,0,0.954,0.318,0.954,0.742
	c-0.026,4.319-0.026,8.638-0.053,12.957c0,0.424-0.45,0.768-0.98,0.795c-0.927,0.026-1.828,0.079-2.756,0.106
	c-0.53,0.026-0.98,0.371-0.98,0.795c0,0.715,0,1.431,0,2.146C76.566,41.682,76.99,41.974,77.493,41.974z"/>
<path fill="#FFFFFF" d="M127.545,38.185c-0.026,0-0.026,0-0.053,0c-0.927-0.026-1.828-0.053-2.756-0.079h-0.026
	c-0.53,0-0.927,0.318-0.927,0.715c0,0.689,0,1.404,0,2.093c0,0.397,0.45,0.768,0.98,0.768c4.319,0.159,7.922,0.318,12.188,0.556
	c0.026,0,0.053,0,0.079,0c0.503,0,0.901-0.318,0.901-0.715c0-0.715,0-1.431,0-2.173c0-0.424-0.45-0.795-0.98-0.821
	c-0.927-0.053-1.828-0.079-2.756-0.132c-0.53-0.026-0.98-0.371-0.98-0.795c-0.026-4.372-0.026-8.717-0.053-13.089
	c0-0.424,0.424-0.742,0.954-0.742l0,0c0.927,0,1.828,0.026,2.756,0.026l0,0c0.53,0,0.954-0.344,0.954-0.768c0-0.715,0-1.431,0-2.173
	c0-0.424-0.45-0.768-0.98-0.768l0,0c-4.266,0-7.869,0-12.162,0c-0.53,0-0.98,0.344-0.98,0.742c0,0.689,0,1.404,0,2.093
	c0,0.397,0.45,0.742,0.98,0.742c0.927,0,1.828,0,2.756,0.026c0.53,0,0.98,0.344,0.98,0.768c0.026,4.319,0.026,8.638,0.053,12.957
	C128.472,37.867,128.074,38.185,127.545,38.185z"/>
<path fill="#FFFFFF" d="M165.169,36.383c-0.927-0.053-1.828-0.132-2.756-0.185c-0.026,0-0.053,0-0.079,0
	c-0.503,0-0.901,0.318-0.901,0.768c0,0.185,0,0.371,0,0.556c0,0.609-0.265,1.166-0.768,1.563c-0.106,0.079-0.238,0.185-0.344,0.265
	c-0.45,0.344-1.06,0.53-1.696,0.53c-0.079,0-0.159,0-0.265,0c-2.65-0.212-5.299-0.397-7.975-0.583
	c-0.715-0.053-1.431-0.318-1.934-0.768c-0.106-0.106-0.238-0.212-0.344-0.318c-0.503-0.45-0.795-1.007-0.795-1.59
	c-0.026-3.392-0.026-6.81-0.053-10.201c0-0.583,0.291-1.139,0.795-1.537c0.106-0.106,0.238-0.185,0.344-0.291
	c0.503-0.397,1.166-0.636,1.881-0.636c0.026,0,0.026,0,0.053,0c2.65,0.026,5.299,0.079,7.949,0.106c0.715,0,1.431,0.265,1.934,0.715
	c0.132,0.106,0.238,0.212,0.371,0.318c0.503,0.45,0.795,1.033,0.795,1.643c0,0.185,0,0.371,0,0.556c0,0.45,0.45,0.848,0.98,0.874
	c0.927,0.026,1.828,0.053,2.756,0.106c0.026,0,0.026,0,0.053,0c0.53,0,0.927-0.344,0.927-0.821c0-0.742,0-1.484,0-2.252
	c0-0.636-0.291-1.245-0.795-1.696c-1.033-0.927-2.093-1.828-3.127-2.703c-0.503-0.45-1.219-0.689-1.934-0.689l0,0
	c-3.948,0-7.896,0-11.844,0c-0.715,0-1.431,0.238-1.934,0.636c-1.033,0.848-2.067,1.669-3.1,2.491
	c-0.503,0.397-0.795,0.954-0.795,1.537c0.026,4.372,0.026,8.77,0.053,13.142c0,0.583,0.291,1.139,0.795,1.59
	c1.033,0.874,2.093,1.775,3.127,2.676c0.503,0.45,1.219,0.742,1.934,0.795c3.948,0.291,7.922,0.636,11.87,1.033
	c0.106,0,0.212,0.026,0.318,0.026c0.609,0,1.166-0.185,1.616-0.503c1.033-0.795,2.067-1.563,3.1-2.385
	c0.503-0.397,0.795-0.98,0.795-1.59c0-0.742,0-1.51,0-2.252C166.15,36.833,165.699,36.436,165.169,36.383z"/>
<path fill="#FFFFFF" d="M193.335,38.847c-0.927-0.106-1.828-0.185-2.756-0.291c-0.026,0-0.079,0-0.106,0
	c-0.477,0-0.874,0.371-0.874,0.848c0,0.901,0,1.802,0,2.676c0,0.477-0.371,0.848-0.848,0.848c-0.053,0-0.079,0-0.132,0
	c-2.464-0.318-4.955-0.609-7.445-0.874c-0.53-0.053-0.98-0.503-0.98-1.007c-0.026-5.22-0.026-10.44-0.053-15.659
	c0-0.503,0.424-0.874,0.954-0.874h0.026c0.927,0.026,1.828,0.053,2.756,0.053h0.027c0.53,0,0.954-0.397,0.954-0.901
	c0-0.874,0-1.749,0-2.623c0-0.503-0.45-0.927-0.98-0.927l0,0c-4.319,0-7.896,0-12.162,0c-0.53,0-0.98,0.397-0.98,0.874
	c0,0.821,0,1.616,0,2.438c0,0.477,0.45,0.874,0.98,0.874c0.927,0.026,1.828,0.026,2.756,0.053c0.53,0,0.98,0.424,0.98,0.901
	c0.026,5.087,0.026,10.201,0.053,15.288c0,0.45-0.371,0.795-0.848,0.795c-0.026,0-0.079,0-0.106,0
	c-0.927-0.106-1.828-0.185-2.756-0.265c-0.026,0-0.079,0-0.106,0c-0.477,0-0.874,0.318-0.874,0.768c0,0.821,0,1.616,0,2.438
	c0,0.477,0.45,0.901,0.98,0.98c5.22,0.689,6.439,0.821,6.571,0.821c0.079,0-0.371-0.079-0.344-0.079c0,0,2.04,0.318,15.262,2.199
	c0.053,0,0.106,0,0.159,0c0.45,0,0.821-0.344,0.821-0.821c0-1.325,0-2.279,0-2.968c0,0,0-0.397,0-0.768c0-0.212,0-0.477,0-0.768
	c0-0.689,0-1.643,0-2.968C194.315,39.404,193.865,38.9,193.335,38.847z"/>
</svg>
